<?xml version="1.0" encoding="UTF-8"?>
<svg id="Ebene_2" data-name="Ebene 2" xmlns="http://www.w3.org/2000/svg" viewBox="0 0 89.31 53.03">
  <defs>
    <style>
      .cls-1 {
        fill: #fff;
      }
    </style>
  </defs>
  <g id="Ebene_1-2" data-name="Ebene 1">
    <path class="cls-1" d="M81.22,11.27v1c6.45,0,7.03,1.4,7.08,1.56.03.1.56,2.54-10.96,8.1-7.95,3.84-18.86,7.79-30.72,11.13-15.32,4.31-29.72,6.88-38.52,6.88-6.45,0-7.03-1.4-7.08-1.56-.03-.1-.56-2.54,10.96-8.1,7.95-3.84,18.86-7.79,30.72-11.13,15.32-4.31,29.72-6.88,38.52-6.88v-1M81.22,11.27c-8.52,0-22.89,2.45-38.79,6.92C17.8,25.12-1.17,34.28.06,38.65c.44,1.55,3.35,2.29,8.04,2.29,8.52,0,22.89-2.45,38.79-6.92,24.63-6.93,43.6-16.09,42.37-20.46-.44-1.55-3.35-2.29-8.04-2.29h0Z"/>
    <path class="cls-1" d="M69.31,19.56c4.02,14.31-4.06,28.51-18.03,32.44-14.45,4.06-28.7-4.22-32.69-18.4C14.53,19.16,22.95,4.86,36.78.97s28.35,3.74,32.53,18.59ZM28.02,31.17c2.77,9.85,12.07,14.3,20.68,11.88,8.81-2.48,13.83-11.68,11.23-20.93-2.51-8.91-11.4-14.78-20.68-12.17-8.74,2.46-14.03,11.23-11.22,21.21Z"/>
  </g>
</svg>