<?xml version="1.0" encoding="UTF-8"?>
<svg id="Ebene_2" data-name="Ebene 2" xmlns="http://www.w3.org/2000/svg" viewBox="0 0 341.48 277.83">
  <g id="Ebene_1-2" data-name="Ebene 1">
    <g id="Ebene_1-2" data-name="Ebene 1-2">
      <path d="M340.48,154.71c-2-14.1-6.89-27.47-14.52-39.73-6.65-10.7-15.19-20.23-25.39-28.32l.03-.03L193.55,4.42c-.08-.07-.16-.13-.24-.19-3.56-2.73-8.38-4.23-13.56-4.23s-10.2,1.5-14.09,4.24c-4.19,2.92-6.58,6.8-6.75,10.93-.15,3.85,1.68,7.56,5.19,10.45,6.89,5.44,13.76,10.99,20.65,16.55,6.68,5.4,13.56,10.96,20.41,16.37l-131.12-.09c-15,0-25.2,7.04-27.31,18.83-.92,5.16.71,10.84,4.35,15.19,3.86,4.61,9.47,7.15,15.79,7.15h10c13.81,0,27.68-.03,41.53-.06l13.21-.03L12.6,187.57l-.47.35c-6.65,5.1-11,12.24-11.94,19.6-.71,5.57.59,10.67,3.76,14.74,3.78,4.85,9.69,7.52,16.63,7.52s13.78-2.58,19.6-7.29l64.26-52.59c-.27,2.57-.61,6.34-.57,9.07.07,4.33,1.46,13.02,3.66,20.07,4.55,14.49,12.21,27.76,22.76,39.4,10.98,12.12,24.36,21.72,39.76,28.55,16.28,7.2,33.78,10.85,52.01,10.85h.17c18.29-.04,35.85-3.76,52.18-11.04,15.42-6.91,28.8-16.55,39.74-28.67,10.54-11.71,18.19-24.99,22.73-39.47,2.25-7.17,3.68-14.57,4.29-22.05.56-7.24.32-14.6-.71-21.89h0ZM223.41,224.19c-40.19,0-72.78-29.15-72.78-65.12s32.59-65.11,72.78-65.11,72.78,29.15,72.78,65.11-32.59,65.12-72.78,65.12h0ZM265.38,153.34c.59,10.73-3.69,20.7-11.22,28.08-7.66,7.52-18.59,12.24-30.81,12.24s-23.15-4.72-30.81-12.24c-7.53-7.38-11.8-17.34-11.22-28.07.58-10.43,5.66-19.63,13.32-26.15,7.53-6.41,17.65-10.32,28.7-10.32s21.16,3.91,28.7,10.32c7.66,6.52,12.75,15.71,13.34,26.14h0Z"/>
    </g>
  </g>
</svg>