<?xml version="1.0" encoding="UTF-8"?>
<svg id="Ebene_2" data-name="Ebene 2" xmlns="http://www.w3.org/2000/svg" viewBox="0 0 399.72 229.72">
  <g id="Ebene_1-2" data-name="Ebene 1">
    <g id="Ebene_1-2" data-name="Ebene 1-2">
      <path d="M399.17,57.09c-2.83-9.99-15.87-14.64-41.05-14.64-18.07,0-41.4,2.42-67.93,6.91C262.79,9.09,213.33-9.02,165.75,4.36c-47.91,13.48-80.82,55.81-83.04,104.23-10.41,4.29-20.12,8.61-29.01,12.9C1.16,146.86-1.8,160.89.56,169.24c2.83,9.98,15.87,14.63,41.05,14.63,16.28,0,36.83-1.97,60.14-5.64,26.49,40.65,76.35,61.19,126.77,47.03,48.85-13.75,81.06-56.49,82.47-105.07,12.69-5.09,24.45-10.25,35.03-15.36,52.55-25.37,55.5-39.39,53.15-47.74ZM41.61,166.56c-13.17,0-19.74-1.42-22.81-2.48,3.14-3.9,12.84-12.72,42.42-27,6.88-3.32,14.28-6.66,22.13-10,.71,6.14,1.92,12.33,3.66,18.53,1.61,5.72,3.61,11.22,5.96,16.48-19.81,2.92-37.28,4.47-51.36,4.47ZM176.45,43.23c24.83-6.99,49.02.06,66.43,15.57-17.56,3.99-35.85,8.63-54.43,13.85-21.25,5.98-41.82,12.42-61.1,19.1,6.63-23.55,24.78-41.67,49.1-48.52ZM217.35,186.51c-24.94,7.01-51.21.71-69.46-17,20.26-4.39,41.62-9.71,63.39-15.83,19.05-5.36,37.56-11.09,55.08-17.03-6.37,23.62-24.22,42.89-49.01,49.86ZM206.59,137.02c-24.43,6.87-48.3,12.72-70.58,17.35-3.42-5.76-6.19-12.2-8.18-19.28l.05-.04c-2.32-8.24-3.37-16.28-3.27-23.99,21.31-7.61,44.45-14.97,68.53-21.75,21.55-6.06,42.65-11.32,62.62-15.65,4.45,6.69,7.93,14.18,10.2,22.25,2.04,7.25,3,14.49,2.97,21.55-19.57,6.83-40.58,13.44-62.34,19.56ZM338.5,89.25c-8.69,4.19-18.22,8.43-28.44,12.63-.73-5.66-1.89-11.35-3.49-17.05-1.93-6.85-4.37-13.35-7.26-19.46,22.88-3.64,42.99-5.6,58.81-5.6,13.17,0,19.74,1.42,22.81,2.48-3.14,3.89-12.84,12.72-42.43,27Z"/>
    </g>
  </g>
</svg>