<?xml version="1.0" encoding="UTF-8"?>
<svg id="Ebene_2" data-name="Ebene 2" xmlns="http://www.w3.org/2000/svg" viewBox="0 0 131.01 132.13">
  <g id="Ebene_1-2" data-name="Ebene 1">
    <g id="Ebene_1-2" data-name="Ebene 1-2">
      <path d="M65.51,0C29.31,0,0,29.57,0,66.06s29.31,66.06,65.51,66.06,65.51-29.57,65.51-66.06S101.68,0,65.49,0h.02,0ZM65.51,2.9c16.71,0,32.45,6.58,44.28,18.49,11.8,11.87,18.39,27.94,18.35,44.67,0,16.86-6.52,32.73-18.35,44.67-11.68,11.85-27.64,18.51-44.28,18.49-16.64.02-32.6-6.64-44.28-18.49-11.8-11.87-18.41-27.94-18.37-44.67,0-16.86,6.54-32.73,18.34-44.67C32.88,9.53,48.86,2.86,65.51,2.9h0ZM62.22,26.15c-10.67,2.86-20.54,8.34-33.7,23.44s-10.67,27.57-10.67,27.57c0,0,3.63-8.58,12.37-17.61,4.15-4.28,7.23-5.72,9.36-5.72,1.89-.11,3.48,1.42,3.48,3.31v30.65c0,3.03-1.96,3.7-3.76,3.65-1.53-.02-2.95-.56-2.95-.56,8.97,13.03,30.43,14.86,30.43,14.86l9.42-10.07.21.19,8.63,7.35c15.78-9.38,23.4-26.75,23.4-26.75-7.05,7.44-11.53,9.18-14.2,9.18-2.37-.02-3.29-1.4-3.29-1.4-.13-.64-.34-9.98-.43-19.31-.09-9.66,0-19.33.47-19.36,2.73-5.12,11.42-15.44,11.42-15.44-16.24,3.2-25.07,13.85-25.07,13.85-2.62-2.06-7.96-1.72-7.96-1.72,2.49,1.38,4.99,5.38,4.99,8.69v32.6s-5.44,4.79-9.63,4.79c-2.49,0-4.02-1.35-4.86-2.47-.32-.43-.6-.9-.82-1.42v-40.26c-.58.43-1.29.67-2,.69-.9,0-1.83-.45-2.45-1.76-.47-.99-.78-2.47-.78-4.64,0-7.42,8.39-12.35,8.39-12.35h0s0,.01,0,.01Z"/>
    </g>
  </g>
</svg>