<?xml version="1.0" encoding="UTF-8"?>
<svg id="Ebene_2" data-name="Ebene 2" xmlns="http://www.w3.org/2000/svg" viewBox="0 0 793.25 800">
  <defs>
    <style>
      .cls-1 {
        fill: #fff;
      }
    </style>
  </defs>
  <g id="Ebene_1-2" data-name="Ebene 1">
    <path class="cls-1" d="M396.62,0C177.47,0,0,179.02,0,400s177.47,400,396.62,400,396.62-179.02,396.62-400S615.65,0,396.5,0h.13ZM396.62,17.58c101.18,0,196.48,39.85,268.1,111.98,71.47,71.88,111.32,169.15,111.08,270.45,0,102.08-39.45,198.18-111.08,270.45-70.7,71.75-167.33,112.1-268.1,111.98-100.78.12-197.4-40.22-268.1-111.98C57.05,598.58,17.07,501.3,17.32,400c0-102.08,39.57-198.18,111.07-270.45C199.1,57.68,295.85,17.3,396.62,17.58h0ZM376.7,158.33c-64.58,17.32-124.35,50.52-204.03,141.93s-64.58,166.93-64.58,166.93c0,0,22-51.95,74.87-106.65,25.13-25.9,43.75-34.63,56.65-34.63,11.45-.65,21.1,8.6,21.1,20.05v185.55c0,18.35-11.85,22.4-22.78,22.13-9.25-.12-17.85-3.38-17.85-3.38,54.3,78.9,184.25,89.98,184.25,89.98l57.03-60.95,1.3,1.18,52.23,44.53c95.57-56.77,141.67-161.98,141.67-161.98-42.7,45.05-69.8,55.6-85.95,55.6-14.32-.12-19.93-8.48-19.93-8.48-.78-3.9-2.08-60.42-2.6-116.93-.52-58.47,0-117.05,2.87-117.2,16.52-31,69.15-93.5,69.15-93.5-98.3,19.4-151.82,83.85-151.82,83.85-15.88-12.5-48.18-10.42-48.18-10.42,15.1,8.33,30.2,32.55,30.2,52.6v197.4s-32.95,29.02-58.33,29.02c-15.1,0-24.35-8.2-29.43-14.97-1.95-2.6-3.65-5.47-4.95-8.6v-243.75c-3.52,2.6-7.82,4.03-12.1,4.17-5.47,0-11.07-2.73-14.85-10.68-2.87-6-4.7-14.97-4.7-28.12,0-44.92,50.78-74.75,50.78-74.75l-.05.07Z"/>
  </g>
</svg>