<?xml version="1.0" encoding="UTF-8"?>
<svg id="Ebene_2" data-name="Ebene 2" xmlns="http://www.w3.org/2000/svg" viewBox="0 0 60.56 58.62">
  <defs>
    <style>
      .cls-1 {
        fill: #fff;
      }
    </style>
  </defs>
  <g id="Ebene_1-2" data-name="Ebene 1">
    <path class="cls-1" d="M43.71,2v41.71H2V2h41.71M43.71,0H2C.9,0,0,.9,0,2v41.71c0,1.1.9,2,2,2h41.71c1.1,0,2-.9,2-2V2c0-1.1-.9-2-2-2h0Z"/>
    <path class="cls-1" d="M58.56,14.91v41.71H16.85V14.91h41.71M58.56,12.91H16.85c-1.1,0-2,.9-2,2v41.71c0,1.1.9,2,2,2h41.71c1.1,0,2-.9,2-2V14.91c0-1.1-.9-2-2-2h0Z"/>
  </g>
</svg>